<?xml version="1.0" standalone="no"?>
<!DOCTYPE svg PUBLIC "-//W3C//DTD SVG 1.1//EN" "http://www.w3.org/Graphics/SVG/1.1/DTD/svg11.dtd" >
<svg xmlns="http://www.w3.org/2000/svg">
<metadata></metadata>
<defs>
<font id="digifacewideregular" horiz-adv-x="1521" >
<font-face units-per-em="2048" ascent="1638" descent="-410" />
<missing-glyph horiz-adv-x="890" />
<glyph horiz-adv-x="0" />
<glyph unicode="&#xd;" horiz-adv-x="890" />
<glyph unicode=" "  horiz-adv-x="890" />
<glyph unicode="&#x09;" horiz-adv-x="890" />
<glyph unicode="&#xa0;" horiz-adv-x="890" />
<glyph unicode="!" horiz-adv-x="522" d="M133 0v317h264v-317h-264zM133 567v731l264 177v-1041z" />
<glyph unicode="&#x22;" horiz-adv-x="878" d="M154 1014l61 461h195l-62 -461h-194zM473 1014l62 461h194l-61 -461h-195z" />
<glyph unicode="#" horiz-adv-x="1792" d="M154 469l30 92h355l110 352h-354l29 93h356l135 436h137l-135 -436h332l135 436h139l-135 -436h352l-30 -93h-353l-110 -352h352l-31 -92h-352l-139 -436h-137l137 436h-332l-137 -436h-139l139 436h-354zM676 561h332l110 352h-332z" />
<glyph unicode="$" d="M133 760v508l131 88l133 -88v-406zM154 0l288 176h650l131 -84l-129 -92h-160l-166 96l-150 -96h-464zM195 737l247 97h643l248 -97l-248 -82h-643zM319 1389l127 86h172l150 -101l158 101h340l-105 -177h-715zM637 -23l131 72l135 -74v-147l-131 -74l-135 84v139z M639 1507v135l129 89l135 -82v-142l-137 -84zM1128 207v420l265 88v-508l-133 -88z" />
<glyph unicode="%" horiz-adv-x="2789" d="M68 922v348l139 86l135 -88v-346l-135 -88zM246 803l139 94h524l133 -94l-133 -80h-528zM250 1382l131 93h532l129 -93l-133 -84h-528zM571 0l600 655h308l-596 -655h-312zM956 922v348l129 88l136 -86v-348l-136 -90zM1368 877l543 598h311l-706 -777zM1573 213v346 l139 88l135 -88v-348l-135 -88zM1751 92l135 84h527l135 -84l-133 -92h-531zM1751 672l135 84h529l133 -82l-135 -96h-527zM2462 213v346l125 90l139 -88v-348l-135 -88z" />
<glyph unicode="&#x26;" horiz-adv-x="1763" d="M133 207v508l264 -88v-420l-133 -88zM133 760v508l131 88l133 -88v-406zM307 90l135 86h643l136 -86l-136 -90h-643zM307 1384l135 91h643l136 -91l-136 -86h-643zM600 739l223 95h269l135 -97l-135 -82h-228zM1135 207v418l131 82l135 -84v-418l-137 -84zM1137 862v187 l133 92l135 -92v-189l-139 -96zM1313 735l141 99h125l256 -97l-221 -82h-166z" />
<glyph unicode="'" horiz-adv-x="559" d="M154 1014l61 461h195l-62 -461h-194z" />
<glyph unicode="(" horiz-adv-x="823" d="M133 207v508l264 -88v-420l-133 -88zM133 760v508l131 88l133 -88v-406zM307 90l135 86h146l196 -176h-342zM307 1384l135 91h342l-196 -177h-146z" />
<glyph unicode=")" horiz-adv-x="823" d="M43 0l201 176h143l135 -86l-135 -90h-344zM43 1475h344l135 -91l-135 -86h-143zM430 207v405l264 103v-508l-131 -88zM430 848v420l133 88l131 -88v-508z" />
<glyph unicode="*" horiz-adv-x="1228" d="M68 895l18 113l375 145l121 -59v-99l-361 -143zM485 1198v266l136 68l135 -70v-268l-135 -66zM651 993v105l127 49l369 -135l20 -107l-135 -53z" />
<glyph unicode="+" horiz-adv-x="1523" d="M129 649l123 176h332l139 -86l-141 -90h-453zM625 858v219l266 80v-301l-129 -90zM627 319v299l135 91l129 -91v-219zM817 737l129 88h453l-121 -176h-340z" />
<glyph unicode="," horiz-adv-x="440" d="M-43 -193l145 510h273l-144 -510h-274z" />
<glyph unicode="-" horiz-adv-x="1050" d="M68 442l178 176h741l-178 -176h-741z" />
<glyph unicode="." horiz-adv-x="397" d="M68 0v317h264v-317h-264z" />
<glyph unicode="/" horiz-adv-x="1781" d="M68 0l596 655h307l-592 -655h-311zM860 877l545 598h313l-706 -777z" />
<glyph unicode="0" d="M133 207v508l264 -88v-420l-133 -88zM133 760v508l131 88l133 -88v-406zM307 90l135 86h643l136 -86l-136 -90h-643zM307 1384l135 91h643l136 -91l-136 -86h-643zM1128 207v420l265 88v-508l-133 -88zM1128 862v406l132 88l133 -88v-508z" />
<glyph unicode="1" d="M631 176v451l264 88v-715zM631 862v436l264 177v-715z" />
<glyph unicode="2" d="M133 207v508l264 -88v-420l-133 -88zM133 1298l309 177h643l136 -91l-136 -86h-952zM195 737l247 97h643l248 -97l-248 -82h-643zM307 90l135 86h699l252 -176h-951zM1128 862v406l132 88l133 -88v-508z" />
<glyph unicode="3" d="M78 0l254 176h643l135 -86l-135 -90h-897zM78 1475h897l135 -91l-135 -86h-643zM84 737l248 97h643l248 -97l-248 -82h-643zM1018 207v420l264 88v-508l-133 -88zM1018 862v406l131 88l133 -88v-508z" />
<glyph unicode="4" d="M133 760v715l264 -177v-436zM195 737l247 97h643l248 -97l-248 -82h-643zM1128 176v451l265 88v-715zM1128 862v436l265 177v-715z" />
<glyph unicode="5" d="M133 0l254 176h698l136 -86l-136 -90h-952zM133 760v508l131 88l133 -88v-406zM195 737l247 97h643l248 -97l-248 -82h-643zM307 1384l135 91h895l-252 -177h-643zM1128 207v420l265 88v-508l-133 -88z" />
<glyph unicode="6" d="M133 207v508l264 -88v-420l-133 -88zM133 760v508l131 88l133 -88v-406zM195 737l247 97h643l248 -97l-248 -82h-643zM307 90l135 86h643l136 -86l-136 -90h-643zM307 1384l135 91h895l-252 -177h-643zM1128 207v420l265 88v-508l-133 -88z" />
<glyph unicode="7" d="M0 1475h1174l-267 -177h-643zM952 176v451l265 88v-715zM952 862v406l265 178v-686z" />
<glyph unicode="8" d="M133 207v508l264 -88v-420l-133 -88zM133 760v508l131 88l133 -88v-406zM195 737l247 97h643l248 -97l-248 -82h-643zM307 90l135 86h643l136 -86l-136 -90h-643zM307 1384l135 91h643l136 -91l-136 -86h-643zM1128 207v420l265 88v-508l-133 -88zM1128 862v406l132 88 l133 -88v-508z" />
<glyph unicode="9" d="M133 760v508l131 88l133 -88v-420zM188 0l254 176h643l136 -86l-136 -90h-897zM195 737l247 97h643l248 -97l-248 -82h-643zM307 1384l135 91h643l136 -91l-136 -86h-643zM1128 207v405l265 103v-508l-133 -88zM1128 848v420l132 88l133 -88v-508z" />
<glyph unicode=":" horiz-adv-x="417" d="M90 0v317h264v-317h-264zM90 655v303h264v-303h-264z" />
<glyph unicode=";" horiz-adv-x="440" d="M-43 -193l145 510h273l-144 -510h-274zM98 655v303h264v-303h-264z" />
<glyph unicode="&#x3c;" horiz-adv-x="1597" d="M154 737l1294 488v-146l-932 -342l932 -342v-145z" />
<glyph unicode="=" d="M133 510l129 178h1131l-129 -178h-1131zM133 793l129 176h1131l-129 -176h-1131z" />
<glyph unicode="&#x3e;" horiz-adv-x="1597" d="M154 250v145l931 342l-931 342v146l1294 -488z" />
<glyph unicode="?" horiz-adv-x="1284" d="M68 1384l135 91h643l135 -91l-135 -86h-643zM336 0v317h266v-317h-266zM338 416v389l264 -170v-219h-264zM391 834h455l248 -93l-248 -86h-189zM889 862v406l131 88l135 -88v-508z" />
<glyph unicode="@" horiz-adv-x="2375" d="M178 739q0 322 373 549q350 213 776 213q385 0 629 -176t244 -444q0 -215 -153.5 -391.5t-346.5 -192.5q-12 -2 -25 -2h-24q-119 0 -196 52t-66 124q-33 -74 -126.5 -113t-201.5 -39q-154 0 -254 93q-113 104 -113 288q27 213 205 363q166 139 346 139q92 0 168 -33.5 t105 -89.5l30 121h148l-137 -444q-23 -74 -33 -107q-18 -61 -19 -98q0 -57 35 -107q23 -31 56.5 -48t76.5 -17q20 0 43 6q121 31 219 141q127 143 127 346q0 242 -219 388.5t-563 146.5q-360 0 -637 -188q-291 -199 -291 -480q0 -260 269.5 -469t621.5 -209q227 0 454.5 78 t364.5 201l68 -64q-182 -154 -406.5 -228.5t-480.5 -74.5q-455 0 -761 218.5t-306 547.5zM866 639q0 -131 52 -188q45 -51 143 -52q102 0 162 35q74 43 145 172q12 29 49 154q10 38 33 112q12 53 12 91q0 94 -69 133q-51 29 -148 28q-117 0 -244 -147q-135 -158 -135 -338z " />
<glyph unicode="A" d="M133 0v715l264 -88v-451zM133 760v686l264 -178v-406zM176 1475h1174l-265 -177h-643zM195 737l247 97h643l248 -97l-248 -82h-643zM1128 176v451l265 88v-715zM1128 862v406l265 178v-686z" />
<glyph unicode="B" d="M133 29v686l264 -88v-420zM133 760v686l264 -178v-406zM176 0l266 176h643l136 -86l-136 -90h-909zM176 1475h909l136 -91l-136 -86h-643zM195 737l247 97h643l248 -97l-248 -82h-643zM1128 207v420l265 88v-508l-133 -88zM1128 862v406l132 88l133 -88v-508z" />
<glyph unicode="C" horiz-adv-x="1368" d="M133 207v508l264 -103v-405l-133 -88zM133 760v508l131 88l133 -88v-420zM307 90l135 86h643l265 -176h-908zM307 1384l135 91h908l-265 -177h-643z" />
<glyph unicode="D" d="M133 29v686l264 -88v-420zM133 760v686l264 -178v-406zM176 0l266 176h643l136 -86l-136 -90h-909zM176 1475h909l136 -91l-136 -86h-643zM1128 207v420l265 88v-508l-133 -88zM1128 862v406l132 88l133 -88v-508z" />
<glyph unicode="E" horiz-adv-x="1368" d="M133 29v686l264 -88v-420zM133 760v686l264 -178v-406zM176 0l266 176h643l265 -176h-1174zM176 1475h1174l-265 -177h-643zM195 737l247 97h643l248 -97l-248 -82h-643z" />
<glyph unicode="F" horiz-adv-x="1345" d="M133 0v715l264 -88v-451zM133 760v686l264 -178v-406zM176 1475h1174l-265 -177h-643zM195 737l247 97h643l248 -97l-248 -82h-643z" />
<glyph unicode="G" d="M133 207v508l264 -88v-420l-133 -88zM133 760v508l131 88l133 -88v-406zM307 90l135 86h643l136 -86l-136 -90h-643zM307 1384l135 91h895l-252 -177h-643zM590 737l250 97h245l248 -97l-248 -82h-245zM1128 207v420l265 88v-508l-133 -88z" />
<glyph unicode="H" d="M133 0v715l264 -88v-451zM133 760v715l264 -177v-436zM195 737l247 97h643l248 -97l-248 -82h-643zM1128 176v451l265 88v-715zM1128 862v436l265 177v-715z" />
<glyph unicode="I" horiz-adv-x="522" d="M133 176v451l264 88v-715zM133 862v436l264 177v-715z" />
<glyph unicode="J" d="M133 29v686l264 -88v-420zM176 0l266 176h643l265 -176h-1174zM1128 207v420l265 88v-686zM1128 862v436l265 177v-715z" />
<glyph unicode="K" d="M133 0v715l264 -88v-451zM133 760v715l264 -177v-436zM195 737l247 97h643l248 -97l-248 -82h-643zM453 868v127l745 480h195v-121l-754 -486h-186zM1128 176v451l265 88v-715z" />
<glyph unicode="L" horiz-adv-x="1474" d="M133 29v686l264 -88v-420zM133 760v715l264 -177v-436zM176 0l266 176h643l265 -176h-1174zM1128 207v420l265 88v-686z" />
<glyph unicode="M" horiz-adv-x="2519" d="M133 0v715l264 -88v-451zM133 760v686l264 -178v-406zM176 1475h2169l-268 -177h-641l-176 115l-175 -115h-649zM1128 147v488l132 80l133 -80v-488l-133 -147zM1128 815v457l132 90l133 -94v-453l-133 -67zM2124 176v451l264 88v-715zM2124 862v406l264 176v-684z" />
<glyph unicode="N" d="M133 0v715l264 -88v-451zM133 760v686l264 -178v-406zM176 1475h1174l-265 -177h-643zM1128 176v451l265 88v-715zM1128 862v406l265 178v-686z" />
<glyph unicode="O" d="M133 207v508l264 -88v-420l-133 -88zM133 760v508l131 88l133 -88v-406zM307 90l135 86h643l136 -86l-136 -90h-643zM307 1384l135 91h643l136 -91l-136 -86h-643zM1128 207v420l265 88v-508l-133 -88zM1128 862v406l132 88l133 -88v-508z" />
<glyph unicode="P" d="M133 0v715l264 -88v-451zM133 760v686l264 -178v-406zM176 1475h909l136 -91l-136 -86h-643zM195 737l247 97h643l248 -97l-248 -82h-643zM1128 862v406l132 88l133 -88v-508z" />
<glyph unicode="Q" horiz-adv-x="1527" d="M133 207v508l264 -88v-420l-133 -88zM133 760v508l131 88l133 -88v-406zM307 1384l135 91h643l136 -91l-136 -86h-643zM311 96l131 80h189l272 -176h-461zM713 176h366l320 -201v-237zM1128 207v420l265 88v-508l-133 -88zM1128 862v406l132 88l133 -88v-508z" />
<glyph unicode="R" horiz-adv-x="1527" d="M133 29v686l264 -88v-420zM133 760v686l264 -178v-406zM176 1475h909l136 -91l-136 -86h-643zM195 737l247 97h643l248 -97l-248 -82h-643zM805 627h299l481 -629l-461 207zM1128 862v406l132 88l133 -88v-508z" />
<glyph unicode="S" d="M133 0l289 176h663l136 -86l-136 -90h-952zM133 760v508l131 88l133 -88v-406zM195 737l247 97h643l248 -97l-248 -82h-643zM307 1384l135 91h951l-287 -177h-664zM1128 207v420l265 88v-508l-133 -88z" />
<glyph unicode="T" horiz-adv-x="1259" d="M-23 1475h1307l-211 -177h-287l-149 103l-160 -103h-289zM496 96v529l137 94l133 -94v-529l-135 -96zM498 827v435l135 96l133 -96v-435l-133 -86z" />
<glyph unicode="U" d="M133 207v508l264 -88v-420l-133 -88zM133 760v715l264 -170v-443zM307 90l135 86h643l136 -86l-136 -90h-643zM1128 207v420l265 88v-508l-133 -88zM1128 862v443l265 170v-715z" />
<glyph unicode="V" horiz-adv-x="1527" d="M133 735l346 -61l252 -305v-371zM133 760v686l264 -178v-406zM799 0v369l252 305l348 59zM1128 862v406l265 178v-686z" />
<glyph unicode="W" horiz-adv-x="2519" d="M133 203v518l264 -111v-407l-133 -88zM133 760v715l266 -177v-450zM311 84l131 92h643l175 -119l178 119h645l135 -88l-131 -88h-1647zM1128 207v452l132 68l135 -68v-456l-131 -90zM1128 840v487l132 148l135 -148v-487l-135 -80zM2124 848v450l266 177v-715zM2126 203 v409l264 109v-518l-125 -86z" />
<glyph unicode="X" horiz-adv-x="1339" d="M68 0v150l436 567h139v-209l-387 -508h-188zM68 1335v140h190l385 -512v-205h-139zM705 508v209h137l434 -572v-145h-191zM705 758v205l387 512h184v-146l-434 -571h-137z" />
<glyph unicode="Y" d="M133 760v715l264 -177v-436zM195 737l247 97h643l248 -97l-248 -82h-643zM633 102v514h270v-514l-141 -102zM1128 862v436l265 177v-715z" />
<glyph unicode="Z" horiz-adv-x="1296" d="M23 0l450 676l313 41l-475 -717h-288zM72 1475h860l-115 -177h-481zM362 0l130 176h466l269 -176h-865zM633 934l356 541h289l-473 -727z" />
<glyph unicode="[" horiz-adv-x="815" d="M133 29v686l264 -88v-420zM133 760v686l264 -178v-406zM176 0l266 176h90l265 -176h-621zM176 1475h621l-265 -177h-90z" />
<glyph unicode="\" horiz-adv-x="884" d="M154 1475h194l387 -1475h-194z" />
<glyph unicode="]" horiz-adv-x="815" d="M23 0l264 176h88l268 -176h-620zM23 1475h620l-268 -177h-88zM422 207v405l264 103v-686zM422 848v420l264 178v-686z" />
<glyph unicode="^" horiz-adv-x="1767" d="M154 356l731 863l735 -863h-221l-514 621l-510 -621h-221z" />
<glyph unicode="_" horiz-adv-x="1411" d="M154 0h1106v-55h-1106v55z" />
<glyph unicode="`" horiz-adv-x="485" d="M0 1036h289l200 -295h-288z" />
<glyph unicode="a" d="M133 0v715l264 -88v-451zM133 760v686l264 -178v-406zM176 1475h1174l-265 -177h-643zM195 737l247 97h643l248 -97l-248 -82h-643zM1128 176v451l265 88v-715zM1128 862v406l265 178v-686z" />
<glyph unicode="b" d="M133 29v686l264 -88v-420zM133 760v686l264 -178v-406zM176 0l266 176h643l136 -86l-136 -90h-909zM176 1475h909l136 -91l-136 -86h-643zM195 737l247 97h643l248 -97l-248 -82h-643zM1128 207v420l265 88v-508l-133 -88zM1128 862v406l132 88l133 -88v-508z" />
<glyph unicode="c" horiz-adv-x="1368" d="M133 207v508l264 -103v-405l-133 -88zM133 760v508l131 88l133 -88v-420zM307 90l135 86h643l265 -176h-908zM307 1384l135 91h908l-265 -177h-643z" />
<glyph unicode="d" d="M133 29v686l264 -88v-420zM133 760v686l264 -178v-406zM176 0l266 176h643l136 -86l-136 -90h-909zM176 1475h909l136 -91l-136 -86h-643zM1128 207v420l265 88v-508l-133 -88zM1128 862v406l132 88l133 -88v-508z" />
<glyph unicode="e" horiz-adv-x="1368" d="M133 29v686l264 -88v-420zM133 760v686l264 -178v-406zM176 0l266 176h643l265 -176h-1174zM176 1475h1174l-265 -177h-643zM195 737l247 97h643l248 -97l-248 -82h-643z" />
<glyph unicode="f" horiz-adv-x="1345" d="M133 0v715l264 -88v-451zM133 760v686l264 -178v-406zM176 1475h1174l-265 -177h-643zM195 737l247 97h643l248 -97l-248 -82h-643z" />
<glyph unicode="g" d="M133 207v508l264 -88v-420l-133 -88zM133 760v508l131 88l133 -88v-406zM307 90l135 86h643l136 -86l-136 -90h-643zM307 1384l135 91h895l-252 -177h-643zM590 737l250 97h245l248 -97l-248 -82h-245zM1128 207v420l265 88v-508l-133 -88z" />
<glyph unicode="h" d="M133 0v715l264 -88v-451zM133 760v715l264 -177v-436zM195 737l247 97h643l248 -97l-248 -82h-643zM1128 176v451l265 88v-715zM1128 862v436l265 177v-715z" />
<glyph unicode="i" horiz-adv-x="522" d="M133 176v451l264 88v-715zM133 862v436l264 177v-715z" />
<glyph unicode="j" d="M133 29v686l264 -88v-420zM176 0l266 176h643l265 -176h-1174zM1128 207v420l265 88v-686zM1128 862v436l265 177v-715z" />
<glyph unicode="k" d="M133 0v715l264 -88v-451zM133 760v715l264 -177v-436zM195 737l247 97h643l248 -97l-248 -82h-643zM453 868v127l745 480h195v-121l-754 -486h-186zM1128 176v451l265 88v-715z" />
<glyph unicode="l" horiz-adv-x="1474" d="M133 29v686l264 -88v-420zM133 760v715l264 -177v-436zM176 0l266 176h643l265 -176h-1174zM1128 207v420l265 88v-686z" />
<glyph unicode="m" horiz-adv-x="2519" d="M133 0v715l264 -88v-451zM133 760v686l264 -178v-406zM176 1475h2169l-268 -177h-641l-176 115l-175 -115h-649zM1128 147v488l132 80l133 -80v-488l-133 -147zM1128 815v457l132 90l133 -94v-453l-133 -67zM2124 176v451l264 88v-715zM2124 862v406l264 176v-684z" />
<glyph unicode="n" d="M133 0v715l264 -88v-451zM133 760v686l264 -178v-406zM176 1475h1174l-265 -177h-643zM1128 176v451l265 88v-715zM1128 862v406l265 178v-686z" />
<glyph unicode="o" d="M133 207v508l264 -88v-420l-133 -88zM133 760v508l131 88l133 -88v-406zM307 90l135 86h643l136 -86l-136 -90h-643zM307 1384l135 91h643l136 -91l-136 -86h-643zM1128 207v420l265 88v-508l-133 -88zM1128 862v406l132 88l133 -88v-508z" />
<glyph unicode="p" d="M133 0v715l264 -88v-451zM133 760v686l264 -178v-406zM176 1475h909l136 -91l-136 -86h-643zM195 737l247 97h643l248 -97l-248 -82h-643zM1128 862v406l132 88l133 -88v-508z" />
<glyph unicode="q" horiz-adv-x="1527" d="M133 207v508l264 -88v-420l-133 -88zM133 760v508l131 88l133 -88v-406zM307 1384l135 91h643l136 -91l-136 -86h-643zM311 96l131 80h189l272 -176h-461zM713 176h366l320 -201v-237zM1128 207v420l265 88v-508l-133 -88zM1128 862v406l132 88l133 -88v-508z" />
<glyph unicode="r" horiz-adv-x="1527" d="M133 29v686l264 -88v-420zM133 760v686l264 -178v-406zM176 1475h909l136 -91l-136 -86h-643zM195 737l247 97h643l248 -97l-248 -82h-643zM805 627h299l481 -629l-461 207zM1128 862v406l132 88l133 -88v-508z" />
<glyph unicode="s" d="M133 0l289 176h663l136 -86l-136 -90h-952zM133 760v508l131 88l133 -88v-406zM195 737l247 97h643l248 -97l-248 -82h-643zM307 1384l135 91h951l-287 -177h-664zM1128 207v420l265 88v-508l-133 -88z" />
<glyph unicode="t" horiz-adv-x="1259" d="M-23 1475h1307l-211 -177h-287l-149 103l-160 -103h-289zM496 96v529l137 94l133 -94v-529l-135 -96zM498 827v435l135 96l133 -96v-435l-133 -86z" />
<glyph unicode="u" d="M133 207v508l264 -88v-420l-133 -88zM133 760v715l264 -170v-443zM307 90l135 86h643l136 -86l-136 -90h-643zM1128 207v420l265 88v-508l-133 -88zM1128 862v443l265 170v-715z" />
<glyph unicode="v" horiz-adv-x="1527" d="M133 735l346 -61l252 -305v-371zM133 760v686l264 -178v-406zM799 0v369l252 305l348 59zM1128 862v406l265 178v-686z" />
<glyph unicode="w" horiz-adv-x="2519" d="M133 203v518l264 -111v-407l-133 -88zM133 760v715l266 -177v-450zM311 84l131 92h643l175 -119l178 119h645l135 -88l-131 -88h-1647zM1128 207v452l132 68l135 -68v-456l-131 -90zM1128 840v487l132 148l135 -148v-487l-135 -80zM2124 848v450l266 177v-715zM2126 203 v409l264 109v-518l-125 -86z" />
<glyph unicode="x" horiz-adv-x="1339" d="M68 0v150l436 567h139v-209l-387 -508h-188zM68 1335v140h190l385 -512v-205h-139zM705 508v209h137l434 -572v-145h-191zM705 758v205l387 512h184v-146l-434 -571h-137z" />
<glyph unicode="y" d="M133 760v715l264 -177v-436zM195 737l247 97h643l248 -97l-248 -82h-643zM633 102v514h270v-514l-141 -102zM1128 862v436l265 177v-715z" />
<glyph unicode="z" horiz-adv-x="1296" d="M23 0l450 676l313 41l-475 -717h-288zM72 1475h860l-115 -177h-481zM362 0l130 176h466l269 -176h-865zM633 934l356 541h289l-473 -727z" />
<glyph unicode="{" horiz-adv-x="931" d="M154 737q84 0 137 41t53 105v686q0 135 240 135h196v-76h-32q-109 0 -146 -24.5t-37 -100.5v-606q0 -63 -58 -111.5t-147 -48.5q88 0 146.5 -47t58.5 -112v-607q0 -76 35 -100.5t148 -24.5h32v-75h-196q-240 0 -240 135v686q0 98 -119 133q-35 12 -71 12z" />
<glyph unicode="|" horiz-adv-x="497" d="M154 0v1475h194v-1475h-194z" />
<glyph unicode="}" horiz-adv-x="931" d="M154 -154h34q111 0 146 25t35 100v607q0 63 60 111t149 48q-16 0 -37 3t-43 12q-129 43 -129 145v606q0 78 -34 101.5t-147 23.5h-34v76h200q236 0 236 -135v-686q0 -47 31.5 -82t89.5 -51q30 -13 69 -13q-39 0 -69 -12q-121 -37 -121 -133v-686q0 -135 -236 -135h-200 v75z" />
<glyph unicode="~" horiz-adv-x="1406" d="M154 598v35q12 109 85.5 166t194.5 57q39 0 82 -6t96 -21l236 -65l37 -10q59 -12 98 -13q51 0 76.5 21.5t40.5 75.5l4 18h153v-33q-12 -109 -85.5 -166t-194.5 -57q-39 0 -82 6t-96 21l-236 65l-41 8q-59 12 -98 13q-49 0 -73.5 -20.5t-39.5 -74.5l-4 -20h-153z" />
<glyph unicode="&#xa1;" horiz-adv-x="522" d="M133 0v1040l264 -133v-731zM133 1157v318h264v-318h-264z" />
<glyph unicode="&#xa2;" horiz-adv-x="1425" d="M133 207v508l264 -103v-405l-133 -88zM133 760v508l131 88l133 -88v-420zM313 86l133 90h648l264 -176h-457l-158 117l-155 -117h-146zM319 1382l130 93h151l150 -109l163 109h449l-264 -177h-652zM608 -29l135 88l136 -90v-141l-131 -117l-140 113v147zM621 1507v148 l129 96l139 -102v-142l-141 -96z" />
<glyph unicode="&#xa3;" horiz-adv-x="1640" d="M-68 735l140 99h229l152 -101l-146 -78h-241zM354 61v555l142 82l129 -82v-407zM360 850v418l136 92l131 -92v-422l-138 -82zM362 0l306 176h641l268 -176h-1215zM535 733l141 101h366l132 -101l-132 -78h-372zM535 1384l133 91h909l-268 -177h-641z" />
<glyph unicode="&#xa4;" horiz-adv-x="1398" d="M154 438l196 129q-88 76 -88 172t86 170l-190 123l39 35l24 16l23 15l196 -127q115 57 262 57q145 0 261 -57l190 129q51 -25 94 -66l-192 -123q82 -76 82 -170q0 -96 -86 -176l194 -129l-22 -16l-21 -14l-53 -31l-191 129q-113 -57 -258 -58q-147 0 -258 60l-198 -129 q-25 10 -47.5 26.5t-42.5 34.5zM403 737q0 -80 89 -139q41 -29 95 -43t113 -14q123 0 207 57q88 57 88 139t-88 140q-43 29 -95 43t-112 14q-119 0 -208 -58.5t-89 -138.5z" />
<glyph unicode="&#xa5;" horiz-adv-x="1560" d="M68 520l73 66h430v-123h-438zM72 317l57 66h442v-121h-444zM139 760v715l264 -177v-436zM197 737l249 97h641l250 -97l-250 -82h-641zM639 102v514h270v-514l-141 -102zM999 264v123h437l61 -63l-65 -60h-433zM999 465v121h445l53 -68l-61 -53h-437zM1135 862v436 l264 177v-715z" />
<glyph unicode="&#xa6;" horiz-adv-x="522" d="M133 176v451l264 88v-715zM133 862v436l264 177v-715z" />
<glyph unicode="&#xa7;" horiz-adv-x="1503" d="M133 57l137 86l136 -88v-305l-136 -88l-137 88v307zM133 307v406l137 88l136 -88v-408l-136 -88zM311 176l160 105h567l158 -105l-111 -70h-663zM311 -371l138 97h612l135 -97l-133 -78h-617zM313 838l111 82h663l109 -82l-152 -97h-573zM313 1382l133 93h617l133 -93 l-135 -84h-615zM1110 307v406l125 88l139 -86v-408l-135 -88zM1110 961v309l125 88l139 -86v-311l-135 -89z" />
<glyph unicode="&#xa8;" horiz-adv-x="753" d="M0 1559v266h264v-266h-264zM492 1559v266h264v-266h-264z" />
<glyph unicode="&#xa9;" horiz-adv-x="2646" d="M166 743q0 315 335 538.5t808 223.5q471 0 806.5 -223.5t335.5 -538.5t-333.5 -538t-808.5 -223q-471 0 -807 223t-336 538zM295 743q0 -279 297 -477t717 -198q422 0 717.5 196t295.5 479q0 279 -296.5 477.5t-716.5 198.5q-422 0 -718 -196.5t-296 -479.5zM854 373v325 l166 -65v-260l-82 -58zM854 727v324l84 57l82 -57v-269zM965 297l86 57h411l166 -114h-577zM965 1126l86 58h577l-166 -113h-411z" />
<glyph unicode="&#xaa;" horiz-adv-x="1357" d="M156 1141v35q0 6 8 36q37 129 173 207t308 78q43 0 90 -6q180 -27 271 -131l14 -17l10 -14v146h178v-668h-178v156l-10 -17q-45 -70 -149.5 -112.5t-231.5 -42.5q-92 0 -184 24q-115 33 -191 97.5t-100 156.5q-8 31 -8 72zM188 594v111h1020v-111h-1020zM338 1143 q0 -23 2 -31l8 -16q27 -104 148 -158q92 -41 190 -41q104 0 197 43q51 25 90 65t51 87q10 27 10 51q0 23 -10 53q-18 61 -68.5 105.5t-123 67t-148.5 22.5q-125 0 -220 -55.5t-120 -147.5z" />
<glyph unicode="&#xab;" horiz-adv-x="1220" d="M68 453h286l310 -453h-289zM68 502l311 456h291l-316 -456h-286zM557 453h285l311 -453h-289zM557 502l309 456h289l-313 -456h-285z" />
<glyph unicode="&#xac;" horiz-adv-x="2457" d="M80 -170v1567h2300v-1567h-2300zM127 -88v-35h317v35h-34q-39 0 -52 4q-33 12 -32 80l2 328q35 0 71.5 -1t73.5 -1l10 51l-4 4h-151v74v51q0 66 17 102.5t73 36.5q35 0 59 -18l23 -111h59q55 164 117 319q45 117 133 318q18 -53 119 -315q76 -201 110 -322h62 q31 125 110 406q94 328 123 370q15 8 60 8v37h-244v-37q29 0 65.5 -5t36.5 -21q0 -51 -77 -316l-82 -266l-238 651h-29l-250 -645q-33 137 -65.5 282.5t-56.5 268.5q-8 12 -7 21q0 20 31 25t45 5h25v37h-293v-37q53 0 66.5 -13t25.5 -73q20 -88 45 -180q57 -215 66 -305 q-47 0 -120 -66.5t-95 -117.5q-8 -20 -11.5 -43t-3.5 -62v-61l-82 -41v-21l82 9l2 -314q0 -66 -17 -81t-85 -15zM440 150q0 -121 70 -203t188 -82q131 0 215 84t84 215q0 115 -73.5 186.5t-190.5 71.5q-125 0 -209 -74t-84 -198zM553 188q0 80 39 139.5t115 59.5 q98 0 145 -92q37 -71 37 -180q0 -84 -33 -142q-41 -70 -121 -69q-94 0 -143 100q-39 78 -39 184zM973 -88v-35h295l-2 35q-61 0 -81 17.5t-20 64.5q0 12 2 48t2 60v58q0 94 21 131q33 57 129 57q78 0 108 -47q25 -39 25 -127v-111v-24q0 -90 -8 -162h198v35q-59 0 -75.5 10 t-16.5 47q2 41 2 68v188q0 197 -190 197q-51 0 -102.5 -31t-88.5 -78q2 37 3 56q0 33 -11 53q-47 -20 -94 -32.5t-96 -12.5v-35q23 2 35 2q27 0 44 -7t17 -28v-352q0 -23 -10 -35t-43 -12q-29 2 -43 2zM1311 1090q0 -178 236.5 -201t236.5 -154q0 -86 -65.5 -131t-155.5 -45 q-53 0 -107 16q-72 23 -86 60l-2 98h-39v-67v-29q0 -41 -6 -82q104 -43 217 -43q55 0 105 12q10 -82 10 -147q-39 -23 -92 -39v-25h92v-321q0 -127 131 -127q16 0 36.5 4t37.5 8l55 70l-17 22q-27 -31 -65 -30q-39 0 -60.5 28.5t-21.5 108.5v26v222q16 0 52 2t52 2 q31 0 60 -6l12 55h-176q0 49 2 99t8 95q57 47 86 91q37 55 37 118q0 180 -235.5 200.5t-235.5 152.5q0 78 55.5 120.5t137.5 42.5q39 0 90 -15t78 -38q10 -23 10 -69v-41h37q0 61 3 87.5t15 75.5q-109 43 -227 43q-127 0 -209 -59q-92 -68 -92 -190zM1858 522h327v37h-33 q-43 0 -59 10.5t-16 55.5v512q0 20 -1 40.5t-1 39.5q0 49 19.5 64t90.5 15v37h-327v-37q76 0 92 -14t16 -76v-49v-528q0 -45 -19.5 -57.5t-60.5 -12.5h-28v-37zM1927 254q0 -109 159 -139.5t159 -104.5q0 -51 -37 -78.5t-90 -27.5q-86 0 -117 30.5t-31 114.5h-33 q0 -23 -4 -77t-4 -60q0 -20 46 -33.5t122 -13.5q96 0 162 45q78 53 78 145q0 102 -160 135t-160 103q0 43 32 68.5t77 25.5q33 0 63.5 -15.5t55.5 -43.5q6 -29 8 -35q2 -12 2 -37l33 -2q0 35 6 77t8 64q-86 27 -164 27q-90 0 -145 -37q-66 -45 -66 -131z" />
<glyph unicode="&#xad;" horiz-adv-x="915" d="M0 451l178 176h742l-179 -176h-741z" />
<glyph unicode="&#xae;" horiz-adv-x="2646" d="M166 743q0 315 335 538.5t808 223.5q471 0 806.5 -223.5t335.5 -538.5t-333.5 -538t-808.5 -223q-471 0 -807 223t-336 538zM295 743q0 -279 297 -477t717 -198q422 0 717.5 196t295.5 479q0 279 -296.5 477.5t-716.5 198.5q-422 0 -718 -196.5t-296 -479.5zM891 283v440 l170 -57v-269zM891 752v438l170 -115v-258zM920 1208h579l90 -57l-90 -55h-407zM932 737l160 62h407l160 -62l-160 -53h-407zM1321 666h190l312 -402l-295 131zM1528 817v258l86 58l82 -58v-323z" />
<glyph unicode="&#xaf;" horiz-adv-x="915" d="M18 1626l179 176h741l-178 -176h-742z" />
<glyph unicode="&#xb0;" horiz-adv-x="1122" d="M154 1231q0 115 119.5 193.5t289.5 78.5q172 0 290 -78.5t118 -193.5q0 -113 -119 -193t-289 -80q-168 0 -288.5 80t-120.5 193zM287 1231q0 -78 79.5 -131t196.5 -53t197 53t80 131t-80 131t-197 53t-196.5 -53t-79.5 -131z" />
<glyph unicode="&#xb1;" horiz-adv-x="1683" d="M135 39v139h1419v-139h-1419zM135 539v139h606v250h209v-250h604v-139h-604v-250h-209v250h-606z" />
<glyph unicode="&#xb2;" horiz-adv-x="759" d="M68 1149v254l133 -45v-209l-68 -45zM68 1694l153 88h324l67 -45l-67 -43h-477zM98 1413l123 49h324l123 -49l-123 -41h-324zM154 1090l67 43h350l127 -89h-477zM565 1477v202l66 43l67 -43v-254z" />
<glyph unicode="&#xb3;" horiz-adv-x="759" d="M78 1044l125 89h323l68 -43l-68 -46h-448zM78 1782h448l68 -45l-68 -43h-323zM80 1413l123 49h323l123 -49l-123 -41h-323zM547 1149v209l133 45v-254l-68 -45zM547 1477v202l65 43l68 -43v-254z" />
<glyph unicode="&#xb4;" horiz-adv-x="485" d="M0 743l201 295h288l-202 -295h-287z" />
<glyph unicode="&#xb6;" horiz-adv-x="1622" d="M145 760v508l131 88l134 -88v-406zM203 737l250 97h303l250 -97l-250 -82h-303zM317 1384l136 91h571l-268 -177h-303zM803 176v451l264 88v-715zM803 862v406l264 178v-686zM1141 0v715l264 -88v-451zM1141 760v686l264 -178v-406z" />
<glyph unicode="&#xb7;" horiz-adv-x="397" d="M68 584v317h264v-317h-264z" />
<glyph unicode="&#xb8;" horiz-adv-x="565" d="M121 -201l168 150h280l-166 -150h-282z" />
<glyph unicode="&#xb9;" horiz-adv-x="759" d="M317 1145v225l132 45v-358zM317 1489v217l132 88v-356z" />
<glyph unicode="&#xba;" horiz-adv-x="1361" d="M154 1147q0 33 10 70q39 129 183.5 209.5t328.5 80.5q109 0 219 -30q252 -72 307 -260q10 -37 10 -70t-4 -48.5t-6 -23.5q-33 -111 -141.5 -184.5t-269.5 -95.5q-47 -8 -109 -9h-66q-29 6 -41 9q-162 23 -270 96.5t-141 183.5q-6 29 -8 35q-2 12 -2 37zM172 594v111h1024 v-111h-1024zM336 1147q0 -31 6 -45q18 -78 89 -130t177 -69q37 -6 74 -6q143 0 245.5 70.5t102.5 179.5q0 31 -6 47q-20 90 -118.5 145.5t-223.5 55.5q-74 0 -141 -21q-94 -29 -149.5 -90t-55.5 -137z" />
<glyph unicode="&#xbb;" horiz-adv-x="1220" d="M68 0l317 457h283l-308 -457h-292zM72 958h290l308 -452h-285zM557 0l315 457h283l-307 -457h-291zM559 958h293l303 -452h-283z" />
<glyph unicode="&#xbc;" horiz-adv-x="1914" d="M258 0l354 655h185l-355 -655h-184zM317 1145v225l132 45v-358zM317 1489v217l132 88v-356zM729 877l322 598h184l-418 -777zM1184 399v357l131 -88v-217zM1214 387l123 49h322l123 -49l-123 -41h-322zM1681 106v226l131 45v-359zM1681 451v217l131 88v-357z" />
<glyph unicode="&#xbd;" horiz-adv-x="1730" d="M166 0l354 655h185l-355 -655h-184zM317 1145v225l132 45v-358zM317 1489v217l132 88v-356zM637 877l321 598h185l-418 -777zM981 117v254l131 -45v-209l-68 -45zM981 662l154 88h321l68 -45l-68 -43h-475zM1012 381l123 49h321l123 -49l-123 -41h-321zM1067 57l68 43 h350l125 -88h-475zM1479 444v203l63 43l68 -43v-254z" />
<glyph unicode="&#xbe;" horiz-adv-x="1914" d="M78 1044l125 89h323l68 -43l-68 -46h-448zM78 1782h448l68 -45l-68 -43h-323zM80 1413l123 49h323l123 -49l-123 -41h-323zM319 0l355 655h184l-354 -655h-185zM547 1149v209l133 45v-254l-68 -45zM547 1477v202l65 43l68 -43v-254zM791 877l321 598h184l-417 -777z M1184 399v357l131 -88v-217zM1214 387l123 49h322l123 -49l-123 -41h-322zM1681 106v226l131 45v-359zM1681 451v217l131 88v-357z" />
<glyph unicode="&#xbf;" horiz-adv-x="1284" d="M133 207v508l264 -103v-405l-133 -88zM195 733l247 86h185l268 -178h-455zM307 90l135 86h643l136 -86l-136 -90h-643zM682 840v219h268v-389zM686 1157v318h264v-318h-264z" />
<glyph unicode="&#xc0;" d="M133 0v715l264 -88v-451zM133 760v686l264 -178v-406zM176 1475h1174l-265 -177h-643zM195 737l247 97h643l248 -97l-248 -82h-643zM346 1839h289l200 -295h-288zM1128 176v451l265 88v-715zM1128 862v406l265 178v-686z" />
<glyph unicode="&#xc1;" d="M133 0v715l264 -88v-451zM133 760v686l264 -178v-406zM176 1475h1174l-265 -177h-643zM195 737l247 97h643l248 -97l-248 -82h-643zM598 1554l201 295h288l-202 -295h-287zM1128 176v451l265 88v-715zM1128 862v406l265 178v-686z" />
<glyph unicode="&#xc2;" d="M133 0v715l264 -88v-451zM133 760v686l264 -178v-406zM160 1581l483 326l74 -205l-190 -121h-367zM176 1475h1174l-265 -177h-643zM195 737l247 97h643l248 -97l-248 -82h-643zM785 1702l82 203l497 -324h-389zM1128 176v451l265 88v-715zM1128 862v406l265 178v-686z " />
<glyph unicode="&#xc3;" d="M133 0v715l264 -88v-451zM133 760v686l264 -178v-406zM176 1475h1174l-265 -177h-643zM195 737l247 97h643l248 -97l-248 -82h-643zM283 1649l109 235l178 -221l-31 -63zM459 1907l445 -92l170 -215l-431 88zM959 1843l31 64l258 -47l-111 -236zM1128 176v451l265 88 v-715zM1128 862v406l265 178v-686z" />
<glyph unicode="&#xc4;" d="M133 0v715l264 -88v-451zM133 760v686l264 -178v-406zM176 1475h1174l-265 -177h-643zM195 737l247 97h643l248 -97l-248 -82h-643zM369 1573v266h264v-266h-264zM861 1573v266h264v-266h-264zM1128 176v451l265 88v-715zM1128 862v406l265 178v-686z" />
<glyph unicode="&#xc5;" d="M133 0v715l264 -88v-451zM133 760v686l264 -178v-406zM176 1475h1174l-265 -177h-643zM195 737l247 97h643l248 -97l-248 -82h-643zM379 1690v164l121 76l110 -74v-170l-110 -72zM533 1586l135 88h219l131 -88l-92 -58h-301zM533 1952l116 80h256l113 -80l-111 -69h-260z M950 1686v172l105 74l121 -76v-166l-121 -76zM1128 176v451l265 88v-715zM1128 862v406l265 178v-686z" />
<glyph unicode="&#xc6;" horiz-adv-x="2433" d="M133 0v717l266 -92v-451zM133 762v684l270 -178v-404zM182 1475h2188l-265 -177h-661l-168 113l-184 -113h-646zM195 739l251 95h646l135 -89l-140 -90h-645zM1130 866v406l140 90l129 -90v-408l-129 -90zM1135 14v613l135 88l129 -88v-437zM1192 0l268 176h647l263 -176 h-1178zM1325 745l129 89h627l246 -95l-256 -84h-627z" />
<glyph unicode="&#xc7;" horiz-adv-x="1413" d="M133 207v508l264 -103v-405l-133 -88zM133 760v508l131 88l133 -88v-420zM307 90l135 86h643l265 -176h-908zM307 1384l135 91h908l-265 -177h-643zM471 -201l178 150h283l-178 -150h-283z" />
<glyph unicode="&#xc8;" horiz-adv-x="1368" d="M133 29v686l264 -88v-420zM133 760v686l264 -178v-406zM176 0l266 176h643l265 -176h-1174zM176 1475h1174l-265 -177h-643zM195 737l247 97h643l248 -97l-248 -82h-643zM332 1839h289l200 -295h-288z" />
<glyph unicode="&#xc9;" horiz-adv-x="1368" d="M133 29v686l264 -88v-420zM133 760v686l264 -178v-406zM176 0l266 176h643l265 -176h-1174zM176 1475h1174l-265 -177h-643zM195 737l247 97h643l248 -97l-248 -82h-643zM616 1546l201 295h288l-202 -295h-287z" />
<glyph unicode="&#xca;" horiz-adv-x="1368" d="M133 29v686l264 -88v-420zM133 760v686l264 -178v-406zM150 1581l483 326l74 -205l-190 -121h-367zM176 0l266 176h643l265 -176h-1174zM176 1475h1174l-265 -177h-643zM195 737l247 97h643l248 -97l-248 -82h-643zM775 1702l82 203l497 -324h-389z" />
<glyph unicode="&#xcb;" horiz-adv-x="1368" d="M133 29v686l264 -88v-420zM133 760v686l264 -178v-406zM176 0l266 176h643l265 -176h-1174zM176 1475h1174l-265 -177h-643zM195 737l247 97h643l248 -97l-248 -82h-643zM375 1573v266h264v-266h-264zM867 1573v266h264v-266h-264z" />
<glyph unicode="&#xcc;" horiz-adv-x="522" d="M-72 1839h289l200 -295h-288zM133 176v451l264 88v-715zM133 862v436l264 177v-715z" />
<glyph unicode="&#xcd;" horiz-adv-x="522" d="M113 1544l201 295h288l-202 -295h-287zM133 176v451l264 88v-715zM133 862v436l264 177v-715z" />
<glyph unicode="&#xce;" horiz-adv-x="522" d="M-262 1577l483 326l74 -205l-190 -121h-367zM133 176v451l264 88v-715zM133 862v436l264 177v-715zM363 1698l82 203l497 -324h-389z" />
<glyph unicode="&#xcf;" horiz-adv-x="522" d="M-76 1577v266h264v-266h-264zM133 176v451l264 88v-715zM133 862v436l264 177v-715zM416 1577v266h264v-266h-264z" />
<glyph unicode="&#xd0;" horiz-adv-x="1841" d="M-23 649l132 176h301l-129 -176h-304zM471 29v686l264 -88v-420zM471 760v686l264 -178v-406zM514 0l266 176h643l136 -86l-136 -90h-909zM514 1475h909l136 -91l-136 -86h-643zM1466 207v420l265 88v-508l-134 -88zM1466 862v406l131 88l134 -88v-508z" />
<glyph unicode="&#xd1;" d="M133 0v715l264 -88v-451zM133 760v686l264 -178v-406zM176 1475h1174l-265 -177h-643zM295 1637l109 235l178 -221l-31 -63zM471 1895l445 -92l170 -215l-431 88zM971 1831l31 64l258 -47l-111 -236zM1128 176v451l265 88v-715zM1128 862v406l265 178v-686z" />
<glyph unicode="&#xd2;" d="M133 207v508l264 -88v-420l-133 -88zM133 760v508l131 88l133 -88v-406zM307 90l135 86h643l136 -86l-136 -90h-643zM307 1384l135 91h643l136 -91l-136 -86h-643zM412 1835h289l200 -295h-288zM1128 207v420l265 88v-508l-133 -88zM1128 862v406l132 88l133 -88v-508z " />
<glyph unicode="&#xd3;" d="M133 207v508l264 -88v-420l-133 -88zM133 760v508l131 88l133 -88v-406zM307 90l135 86h643l136 -86l-136 -90h-643zM307 1384l135 91h643l136 -91l-136 -86h-643zM602 1544l201 295h288l-202 -295h-287zM1128 207v420l265 88v-508l-133 -88zM1128 862v406l132 88 l133 -88v-508z" />
<glyph unicode="&#xd4;" d="M133 207v508l264 -88v-420l-133 -88zM133 760v508l131 88l133 -88v-406zM184 1583l483 326l74 -205l-190 -121h-367zM307 90l135 86h643l136 -86l-136 -90h-643zM307 1384l135 91h643l136 -91l-136 -86h-643zM809 1704l82 203l497 -324h-389zM1128 207v420l265 88v-508 l-133 -88zM1128 862v406l132 88l133 -88v-508z" />
<glyph unicode="&#xd5;" d="M133 207v508l264 -88v-420l-133 -88zM133 760v508l131 88l133 -88v-406zM244 1637l109 235l178 -221l-31 -63zM307 90l135 86h643l136 -86l-136 -90h-643zM307 1384l135 91h643l136 -91l-136 -86h-643zM420 1895l445 -92l170 -215l-431 88zM920 1831l31 64l258 -47 l-111 -236zM1128 207v420l265 88v-508l-133 -88zM1128 862v406l132 88l133 -88v-508z" />
<glyph unicode="&#xd6;" d="M133 207v508l264 -88v-420l-133 -88zM133 760v508l131 88l133 -88v-406zM307 90l135 86h643l136 -86l-136 -90h-643zM307 1384l135 91h643l136 -91l-136 -86h-643zM375 1575v266h264v-266h-264zM867 1575v266h264v-266h-264zM1128 207v420l265 88v-508l-133 -88z M1128 862v406l132 88l133 -88v-508z" />
<glyph unicode="&#xd7;" horiz-adv-x="1523" d="M305 913l101 183l319 -213l6 -123h-196zM307 561l234 156l190 4l-6 -129l-319 -213zM793 592v127l184 -4l233 -154l-100 -182zM799 764v125l319 211l103 -180l-244 -160z" />
<glyph unicode="&#xd8;" horiz-adv-x="1536" d="M133 0v150l1149 1325h129v-146l-1143 -1329h-135zM135 229v484l271 -84v-90zM135 760v508l133 88l131 -88v-406zM319 1384l134 91h651l67 -54l-104 -123h-614zM375 51l117 125l606 -2l125 -86l-129 -88h-645zM1130 207v420l265 88v-508l-131 -88zM1141 862v74l270 305 v-479z" />
<glyph unicode="&#xd9;" d="M133 207v508l264 -88v-420l-133 -88zM133 760v715l264 -170v-443zM307 90l135 86h643l136 -86l-136 -90h-643zM391 1841h289l200 -295h-288zM1128 207v420l265 88v-508l-133 -88zM1128 862v443l265 170v-715z" />
<glyph unicode="&#xda;" d="M133 207v508l264 -88v-420l-133 -88zM133 760v715l264 -170v-443zM307 90l135 86h643l136 -86l-136 -90h-643zM629 1544l201 295h288l-202 -295h-287zM1128 207v420l265 88v-508l-133 -88zM1128 862v443l265 170v-715z" />
<glyph unicode="&#xdb;" d="M133 207v508l264 -88v-420l-133 -88zM133 760v715l264 -170v-443zM164 1575l483 326l74 -205l-190 -121h-367zM307 90l135 86h643l136 -86l-136 -90h-643zM789 1696l82 203l497 -324h-389zM1128 207v420l265 88v-508l-133 -88zM1128 862v443l265 170v-715z" />
<glyph unicode="&#xdc;" d="M133 207v508l264 -88v-420l-133 -88zM133 760v715l264 -170v-443zM307 90l135 86h643l136 -86l-136 -90h-643zM369 1575v266h264v-266h-264zM861 1575v266h264v-266h-264zM1128 207v420l265 88v-508l-133 -88zM1128 862v443l265 170v-715z" />
<glyph unicode="&#xdd;" d="M133 760v715l264 -177v-436zM195 737l247 97h643l248 -97l-248 -82h-643zM625 1544l201 295h288l-202 -295h-287zM633 102v514h270v-514l-141 -102zM1128 862v436l265 177v-715z" />
<glyph unicode="&#xde;" horiz-adv-x="2048" />
<glyph unicode="&#xe0;" d="M133 0v715l264 -88v-451zM133 760v686l264 -178v-406zM176 1475h1174l-265 -177h-643zM195 737l247 97h643l248 -97l-248 -82h-643zM408 1839h289l200 -295h-288zM1128 176v451l265 88v-715zM1128 862v406l265 178v-686z" />
<glyph unicode="&#xe1;" d="M133 0v715l264 -88v-451zM133 760v686l264 -178v-406zM176 1475h1174l-265 -177h-643zM195 737l247 97h643l248 -97l-248 -82h-643zM629 1544l201 295h288l-202 -295h-287zM1128 176v451l265 88v-715zM1128 862v406l265 178v-686z" />
<glyph unicode="&#xe2;" d="M133 0v715l264 -88v-451zM133 760v686l264 -178v-406zM170 1571l483 326l74 -205l-190 -121h-367zM176 1475h1174l-265 -177h-643zM195 737l247 97h643l248 -97l-248 -82h-643zM795 1692l82 203l497 -324h-389zM1128 176v451l265 88v-715zM1128 862v406l265 178v-686z " />
<glyph unicode="&#xe3;" d="M133 0v715l264 -88v-451zM133 760v686l264 -178v-406zM176 1475h1174l-265 -177h-643zM195 737l247 97h643l248 -97l-248 -82h-643zM252 1649l109 235l178 -221l-31 -63zM428 1907l445 -92l170 -215l-431 88zM928 1843l31 64l258 -47l-111 -236zM1128 176v451l265 88 v-715zM1128 862v406l265 178v-686z" />
<glyph unicode="&#xe4;" d="M133 0v715l264 -88v-451zM133 760v686l264 -178v-406zM176 1475h1174l-265 -177h-643zM195 737l247 97h643l248 -97l-248 -82h-643zM369 1573v266h264v-266h-264zM861 1573v266h264v-266h-264zM1128 176v451l265 88v-715zM1128 862v406l265 178v-686z" />
<glyph unicode="&#xe5;" d="M133 0v715l264 -88v-451zM133 760v686l264 -178v-406zM176 1475h1174l-265 -177h-643zM195 737l247 97h643l248 -97l-248 -82h-643zM379 1690v164l121 76l110 -74v-170l-110 -72zM533 1586l135 88h219l131 -88l-92 -58h-301zM533 1952l116 80h256l113 -80l-111 -69h-260z M950 1686v172l105 74l121 -76v-166l-121 -76zM1128 176v451l265 88v-715zM1128 862v406l265 178v-686z" />
<glyph unicode="&#xe6;" horiz-adv-x="2433" d="M133 0v717l266 -92v-451zM133 762v684l270 -178v-404zM182 1475h2188l-265 -177h-661l-168 113l-184 -113h-646zM195 739l251 95h646l135 -89l-140 -90h-645zM1130 866v406l140 90l129 -90v-408l-129 -90zM1135 14v613l135 88l129 -88v-437zM1192 0l268 176h647l263 -176 h-1178zM1325 745l129 89h627l246 -95l-256 -84h-627z" />
<glyph unicode="&#xe7;" horiz-adv-x="1413" d="M133 207v508l264 -103v-405l-133 -88zM133 760v508l131 88l133 -88v-420zM307 90l135 86h643l265 -176h-908zM307 1384l135 91h908l-265 -177h-643zM471 -201l178 150h283l-178 -150h-283z" />
<glyph unicode="&#xe8;" horiz-adv-x="1368" d="M133 29v686l264 -88v-420zM133 760v686l264 -178v-406zM176 0l266 176h643l265 -176h-1174zM176 1475h1174l-265 -177h-643zM195 737l247 97h643l248 -97l-248 -82h-643zM332 1839h289l200 -295h-288z" />
<glyph unicode="&#xe9;" horiz-adv-x="1368" d="M133 29v686l264 -88v-420zM133 760v686l264 -178v-406zM176 0l266 176h643l265 -176h-1174zM176 1475h1174l-265 -177h-643zM195 737l247 97h643l248 -97l-248 -82h-643zM596 1546l201 295h288l-202 -295h-287z" />
<glyph unicode="&#xea;" horiz-adv-x="1368" d="M133 29v686l264 -88v-420zM133 760v686l264 -178v-406zM139 1581l483 326l74 -205l-190 -121h-367zM176 0l266 176h643l265 -176h-1174zM176 1475h1174l-265 -177h-643zM195 737l247 97h643l248 -97l-248 -82h-643zM764 1702l82 203l497 -324h-389z" />
<glyph unicode="&#xeb;" horiz-adv-x="1368" d="M133 29v686l264 -88v-420zM133 760v686l264 -178v-406zM176 0l266 176h643l265 -176h-1174zM176 1475h1174l-265 -177h-643zM195 737l247 97h643l248 -97l-248 -82h-643zM354 1573v266h264v-266h-264zM846 1573v266h264v-266h-264z" />
<glyph unicode="&#xec;" horiz-adv-x="522" d="M-72 1839h289l200 -295h-288zM133 176v451l264 88v-715zM133 862v436l264 177v-715z" />
<glyph unicode="&#xed;" horiz-adv-x="522" d="M102 1544l201 295h288l-202 -295h-287zM133 176v451l264 88v-715zM133 862v436l264 177v-715z" />
<glyph unicode="&#xee;" horiz-adv-x="522" d="M-303 1577l483 326l74 -205l-190 -121h-367zM133 176v451l264 88v-715zM133 862v436l264 177v-715zM322 1698l82 203l497 -324h-389z" />
<glyph unicode="&#xef;" horiz-adv-x="522" d="M-76 1577v266h264v-266h-264zM133 176v451l264 88v-715zM133 862v436l264 177v-715zM416 1577v266h264v-266h-264z" />
<glyph unicode="&#xf0;" horiz-adv-x="1841" d="M-23 649l132 176h301l-129 -176h-304zM471 29v686l264 -88v-420zM471 760v686l264 -178v-406zM514 0l266 176h643l136 -86l-136 -90h-909zM514 1475h909l136 -91l-136 -86h-643zM1466 207v420l265 88v-508l-134 -88zM1466 862v406l131 88l134 -88v-508z" />
<glyph unicode="&#xf1;" d="M133 0v715l264 -88v-451zM133 760v686l264 -178v-406zM176 1475h1174l-265 -177h-643zM254 1637l109 235l178 -221l-31 -63zM430 1895l445 -92l170 -215l-431 88zM930 1831l31 64l258 -47l-111 -236zM1128 176v451l265 88v-715zM1128 862v406l265 178v-686z" />
<glyph unicode="&#xf2;" d="M133 207v508l264 -88v-420l-133 -88zM133 760v508l131 88l133 -88v-406zM307 90l135 86h643l136 -86l-136 -90h-643zM307 1384l135 91h643l136 -91l-136 -86h-643zM412 1835h289l200 -295h-288zM1128 207v420l265 88v-508l-133 -88zM1128 862v406l132 88l133 -88v-508z " />
<glyph unicode="&#xf3;" d="M133 207v508l264 -88v-420l-133 -88zM133 760v508l131 88l133 -88v-406zM307 90l135 86h643l136 -86l-136 -90h-643zM307 1384l135 91h643l136 -91l-136 -86h-643zM623 1544l201 295h288l-202 -295h-287zM1128 207v420l265 88v-508l-133 -88zM1128 862v406l132 88 l133 -88v-508z" />
<glyph unicode="&#xf4;" d="M133 207v508l264 -88v-420l-133 -88zM133 760v508l131 88l133 -88v-406zM174 1583l483 326l74 -205l-190 -121h-367zM307 90l135 86h643l136 -86l-136 -90h-643zM307 1384l135 91h643l136 -91l-136 -86h-643zM799 1704l82 203l497 -324h-389zM1128 207v420l265 88v-508 l-133 -88zM1128 862v406l132 88l133 -88v-508z" />
<glyph unicode="&#xf5;" d="M133 207v508l264 -88v-420l-133 -88zM133 760v508l131 88l133 -88v-406zM285 1616l109 235l178 -221l-31 -63zM307 90l135 86h643l136 -86l-136 -90h-643zM307 1384l135 91h643l136 -91l-136 -86h-643zM461 1874l445 -92l170 -215l-431 88zM961 1810l31 64l258 -47 l-111 -236zM1128 207v420l265 88v-508l-133 -88zM1128 862v406l132 88l133 -88v-508z" />
<glyph unicode="&#xf6;" d="M133 207v508l264 -88v-420l-133 -88zM133 760v508l131 88l133 -88v-406zM307 90l135 86h643l136 -86l-136 -90h-643zM307 1384l135 91h643l136 -91l-136 -86h-643zM385 1575v266h264v-266h-264zM877 1575v266h264v-266h-264zM1128 207v420l265 88v-508l-133 -88z M1128 862v406l132 88l133 -88v-508z" />
<glyph unicode="&#xf7;" horiz-adv-x="1050" d="M68 442l178 176h741l-178 -176h-741zM403 43v317h265v-317h-265zM403 698v303h265v-303h-265z" />
<glyph unicode="&#xf8;" horiz-adv-x="1536" d="M133 0v150l1149 1325h129v-146l-1143 -1329h-135zM135 229v484l271 -84v-90zM135 760v508l133 88l131 -88v-406zM319 1384l134 91h651l67 -54l-104 -123h-614zM375 51l117 125l606 -2l125 -86l-129 -88h-645zM1130 207v420l265 88v-508l-131 -88zM1141 862v74l270 305 v-479z" />
<glyph unicode="&#xf9;" d="M133 207v508l264 -88v-420l-133 -88zM133 760v715l264 -170v-443zM307 90l135 86h643l136 -86l-136 -90h-643zM412 1841h289l200 -295h-288zM1128 207v420l265 88v-508l-133 -88zM1128 862v443l265 170v-715z" />
<glyph unicode="&#xfa;" d="M133 207v508l264 -88v-420l-133 -88zM133 760v715l264 -170v-443zM307 90l135 86h643l136 -86l-136 -90h-643zM659 1544l201 295h288l-202 -295h-287zM1128 207v420l265 88v-508l-133 -88zM1128 862v443l265 170v-715z" />
<glyph unicode="&#xfb;" d="M133 207v508l264 -88v-420l-133 -88zM133 760v715l264 -170v-443zM154 1575l483 326l74 -205l-190 -121h-367zM307 90l135 86h643l136 -86l-136 -90h-643zM779 1696l82 203l497 -324h-389zM1128 207v420l265 88v-508l-133 -88zM1128 862v443l265 170v-715z" />
<glyph unicode="&#xfc;" d="M133 207v508l264 -88v-420l-133 -88zM133 760v715l264 -170v-443zM307 90l135 86h643l136 -86l-136 -90h-643zM358 1575v266h264v-266h-264zM850 1575v266h264v-266h-264zM1128 207v420l265 88v-508l-133 -88zM1128 862v443l265 170v-715z" />
<glyph unicode="&#xfd;" d="M133 760v715l264 -177v-436zM195 737l247 97h643l248 -97l-248 -82h-643zM604 1544l201 295h288l-202 -295h-287zM633 102v514h270v-514l-141 -102zM1128 862v436l265 177v-715z" />
<glyph unicode="&#xfe;" horiz-adv-x="2048" />
<glyph unicode="&#xff;" d="M133 760v715l264 -177v-436zM195 737l247 97h643l248 -97l-248 -82h-643zM356 1577v266h264v-266h-264zM633 102v514h270v-514l-141 -102zM848 1577v266h264v-266h-264zM1128 862v436l265 177v-715z" />
<glyph unicode="&#x152;" horiz-adv-x="2443" d="M133 176v547l270 -94v-453l-135 -80zM133 766v510l135 82l135 -84v-404zM307 74l166 102h612l181 -127l190 127h658l262 -176h-1936zM313 1391l140 84h1925l-267 -177h-673l-160 119l-186 -119h-643zM1128 190v443l144 90l123 -92v-443l-125 -88zM1130 866v406l140 90 l129 -90v-408l-129 -90zM1325 745l129 89h627l246 -95l-256 -84h-627z" />
<glyph unicode="&#x153;" horiz-adv-x="2443" d="M133 176v547l270 -94v-453l-135 -80zM133 766v510l135 82l135 -84v-404zM307 74l166 102h612l181 -127l190 127h658l262 -176h-1936zM313 1391l140 84h1925l-267 -177h-673l-160 119l-186 -119h-643zM1128 190v443l144 90l123 -92v-443l-125 -88zM1130 866v406l140 90 l129 -90v-408l-129 -90zM1325 745l129 89h627l246 -95l-256 -84h-627z" />
<glyph unicode="&#x178;" d="M133 760v715l264 -177v-436zM195 737l247 97h643l248 -97l-248 -82h-643zM408 1577v266h264v-266h-264zM633 102v514h270v-514l-141 -102zM900 1577v266h264v-266h-264zM1128 862v436l265 177v-715z" />
<glyph unicode="&#x2c6;" horiz-adv-x="1198" d="M0 1495l483 326l74 -205l-190 -121h-367zM625 1616l82 203l497 -324h-389z" />
<glyph unicode="&#x2dc;" horiz-adv-x="962" d="M0 1569l109 235l178 -221l-31 -63zM176 1827l445 -92l170 -215l-431 88zM676 1763l31 64l258 -47l-111 -236z" />
<glyph unicode="&#x2000;" horiz-adv-x="1016" />
<glyph unicode="&#x2001;" horiz-adv-x="2032" />
<glyph unicode="&#x2002;" horiz-adv-x="1016" />
<glyph unicode="&#x2003;" horiz-adv-x="2032" />
<glyph unicode="&#x2004;" horiz-adv-x="677" />
<glyph unicode="&#x2005;" horiz-adv-x="508" />
<glyph unicode="&#x2006;" horiz-adv-x="338" />
<glyph unicode="&#x2007;" horiz-adv-x="338" />
<glyph unicode="&#x2008;" horiz-adv-x="254" />
<glyph unicode="&#x2009;" horiz-adv-x="406" />
<glyph unicode="&#x200a;" horiz-adv-x="112" />
<glyph unicode="&#x2010;" horiz-adv-x="1050" d="M68 442l178 176h741l-178 -176h-741z" />
<glyph unicode="&#x2011;" horiz-adv-x="1050" d="M68 442l178 176h741l-178 -176h-741z" />
<glyph unicode="&#x2012;" horiz-adv-x="1050" d="M68 442l178 176h741l-178 -176h-741z" />
<glyph unicode="&#x2013;" d="M133 649l129 176h1131l-129 -176h-1131z" />
<glyph unicode="&#x2014;" horiz-adv-x="2719" d="M133 649l129 176h1131l-129 -176h-1131zM1393 649l129 176h1130l-129 -176h-1130z" />
<glyph unicode="&#x2018;" horiz-adv-x="552" d="M68 967l145 508h272l-143 -508h-274z" />
<glyph unicode="&#x2019;" horiz-adv-x="552" d="M68 967l145 508h272l-143 -508h-274z" />
<glyph unicode="&#x201a;" horiz-adv-x="440" d="M-43 -193l145 510h273l-144 -510h-274z" />
<glyph unicode="&#x201c;" horiz-adv-x="1013" d="M68 967l145 508h272l-143 -508h-274zM532 967l144 508h274l-145 -508h-273z" />
<glyph unicode="&#x201d;" horiz-adv-x="1013" d="M68 967l145 508h272l-143 -508h-274zM532 967l144 508h274l-145 -508h-273z" />
<glyph unicode="&#x201e;" horiz-adv-x="903" d="M-43 -193l145 510h273l-144 -510h-274zM422 -193l143 510h275l-146 -510h-272z" />
<glyph unicode="&#x2022;" horiz-adv-x="1122" d="M154 737q0 115 119.5 194t289.5 79q172 0 290 -79t118 -194q0 -113 -119 -192.5t-289 -79.5t-289.5 79t-119.5 193z" />
<glyph unicode="&#x2026;" horiz-adv-x="1755" d="M127 92q0 47 48 79t118 32t118 -32t48 -79t-48.5 -78.5t-117.5 -31.5q-70 0 -118 31.5t-48 78.5zM713 92q0 47 48 79t118 32t117.5 -32t47.5 -79t-48 -78.5t-117 -31.5q-70 0 -118 31.5t-48 78.5zM1300 92q0 47 48.5 79t117.5 32q70 0 118 -31t48 -80q0 -45 -49 -77.5 t-117 -32.5q-70 0 -118 31.5t-48 78.5z" />
<glyph unicode="&#x202f;" horiz-adv-x="406" />
<glyph unicode="&#x2039;" horiz-adv-x="737" d="M68 453h286l310 -453h-289zM68 502l311 456h291l-316 -456h-286z" />
<glyph unicode="&#x203a;" horiz-adv-x="737" d="M68 0l317 457h283l-308 -457h-292zM72 958h290l308 -452h-285z" />
<glyph unicode="&#x205f;" horiz-adv-x="508" />
<glyph unicode="&#x2122;" horiz-adv-x="2248" d="M154 1378v97h663v-97h-252v-641h-162v641h-249zM780 737l219 760h64l330 -489l18 -29l8 -16q6 -14 12.5 -36t6.5 -38q8 59 47 119l332 489h63l219 -760h-164l-112 439l-6 24l-5 12q-2 16 -2 25q0 20 7 45l-29 -68l-14 -24l-5 -10l-307 -461h-45l-307 461l-6 12l-12 22 l-29 68q6 -25 6 -45q-2 -16 -2 -25l-4 -12l-6 -24l-113 -439h-164z" />
<glyph unicode="&#x25fc;" horiz-adv-x="1474" d="M0 0v1475h1475v-1475h-1475z" />
</font>
</defs>
</svg>
